# xmcd
#
# Track frame offsets:
#	150
#	12270
#	22851
#	35672
#	49754
#	64010
#	75409
#	87789
#	99325
#	112670
#	126383
#	139954
#	152738
#	170679
#	185622
#	200518
#
# Disc length: 2813 seconds
#
# Revision: 3
# Processed by: cddbd v1.5.1PL0 Copyright (c) Steve Scherf et al.
# Submitted via: audiograbber 1.83.01
#
DISCID=ca0afb10
DTITLE=Altemar Dutra - O Inesquecivel
DYEAR=2002
DGENRE=Latin
TTITLE0=Que Queres Tu De Mim
TTITLE1=Sentimental De Mais
TTITLE2=O Trovador
TTITLE3=Modinha
TTITLE4=Brigas
TTITLE5=Jura-me
TTITLE6=Meu Velho
TTITLE7=Creio Em Ti
TTITLE8=Tudo De Mim
TTITLE9=Somos Iguais
TTITLE10=Oferenda
TTITLE11=A Pretendida
TTITLE12=Serra Da Boa Esperença
TTITLE13=Eu Nunca Mais Vou Te Equecer
TTITLE14=Gente Humilde
TTITLE15=As Rosas Nâo Falam
EXTD=YEAR: 2002
EXTT0=
EXTT1=
EXTT2=
EXTT3=
EXTT4=
EXTT5=
EXTT6=
EXTT7=
EXTT8=
EXTT9=
EXTT10=
EXTT11=
EXTT12=
EXTT13=
EXTT14=
EXTT15=
PLAYORDER=
